<!-- created by svgstack.com | Attribution is required. --><svg width="401" height="161" viewBox="0 0 401 161" fill="none" xmlns="http://www.w3.org/2000/svg"><path d="M4.35962 1.92554V12.6455H80.6097V1.92554H4.35962ZM91.4197 1.92554V12.6455H200.09C200.09 12.6455 188.99 1.92554 174.29 1.92554H91.4197ZM221.405 1.92554V12.6455H287.14L283.24 1.92554H221.405ZM334.28 1.92554L330.38 12.6455H395.53V1.92554H334.28ZM4.35962 22.7755V33.4955H80.6097V22.7755H4.35962ZM91.4197 22.7905V33.4905H212.69C212.69 33.4905 211.275 25.2405 208.805 22.7905H91.4197ZM221.405 22.7905V33.4905H294.405L290.795 22.7905H221.405ZM326.475 22.7905L322.865 33.4905H395.525V22.7905H326.475ZM26.2746 43.6255V54.3606H59.2997V43.6255H26.2746ZM113.335 43.6255V54.3606H146.36V43.6255H113.335ZM178.485 43.6255V54.3606H211.51C211.51 54.3606 213.61 48.6905 213.61 43.6255H178.485ZM243.325 43.6255V54.3606H301.825L297.925 43.6255H243.325ZM319.29 43.6255L315.37 54.3606H374.21V43.6255H319.29ZM26.2796 64.4906V75.2106H59.3047V64.4906H26.2796ZM113.34 64.4906V75.2106H197.69C197.69 75.2106 204.74 69.7106 206.99 64.4906H113.34ZM243.325 64.4906V75.2106H276.35V69.2406L278.45 75.2106H338.95L341.2 69.2406V75.2106H374.225V64.4906H312.225L308.935 73.5706L305.635 64.4906H243.325ZM26.2746 85.3406V96.0606H59.2997V85.3406H26.2746ZM113.335 85.3406V96.0606H206.985C204.735 90.8607 197.685 85.3406 197.685 85.3406H113.335ZM243.32 85.3406V96.0606H276.345V85.3406H243.32ZM282.345 85.3406L286.345 96.0606H331.705L335.505 85.3406H282.345ZM341.185 85.3406V96.0606H374.21V85.3406H341.185ZM26.2846 106.191V116.911H59.3097V106.191H26.2846ZM113.345 106.191V116.911H146.37V106.191H113.345ZM178.495 106.191V116.911H213.615C213.615 111.851 211.515 106.191 211.515 106.191H178.495ZM243.335 106.191V116.911H276.36V106.191H243.335ZM289.855 106.191L293.725 116.911H324.125L328.025 106.191H289.855ZM341.195 106.191V116.911H374.22V106.191H341.195ZM4.96961 127.041V137.776H81.2197V127.041H4.96961ZM91.4347 127.041V137.776H208.825C211.295 135.316 212.71 127.041 212.71 127.041H91.4347ZM222.015 127.041V137.776H276.34V127.041H222.015ZM297.365 127.041L301.345 137.776H316.815L320.55 127.041H297.365ZM341.195 127.041V137.776H396.135V127.041H341.195ZM4.96961 147.906V158.626H81.2197V147.906H4.96961ZM91.4347 147.906V158.606H174.29C188.99 158.606 200.09 147.906 200.09 147.906H91.4347ZM222.015 147.906V158.626H276.34V147.906H222.015ZM304.915 147.906L308.74 158.596L309.4 158.611L313.285 147.911L304.915 147.906ZM341.2 147.906V158.626H396.14V147.906H341.2Z" fill="black"/></svg> 